<svg width="421" height="531" viewBox="0 0 531 317" fill="none" xmlns="http://www.w3.org/2000/svg">
<g clip-path="url(#clip0_38_5934)">
<path d="M406.546 313.415C399.748 307.679 395.619 298.618 396.701 289.797C397.784 280.976 404.492 272.866 413.192 270.993C421.892 269.12 431.81 274.305 434.453 282.792C435.907 266.43 437.583 249.383 446.294 235.449C454.183 222.833 467.845 213.805 482.652 212.19C497.459 210.575 513.049 216.675 522.283 228.345C531.518 240.015 533.779 256.981 527.311 270.379C522.547 280.248 513.769 287.594 504.572 293.569C474.853 312.716 439.209 320.503 404.198 315.496L406.546 313.415Z" fill="#F2F2F2"/>
<path d="M170.938 311.857C180.275 303.978 185.947 291.533 184.459 279.417C182.972 267.301 173.759 256.162 161.809 253.59C149.86 251.017 136.238 258.139 132.608 269.795C130.61 247.322 128.309 223.908 116.343 204.771C105.509 187.442 86.7436 175.043 66.4062 172.824C46.0689 170.606 24.6562 178.984 11.9726 195.013C-0.711111 211.041 -3.81665 234.344 5.06666 252.746C11.6107 266.302 23.6671 276.391 36.2992 284.598C76.6 310.784 126.593 321.704 174.162 314.714" fill="#7FC36E"/>
<path d="M32.0838 179.449C48.8647 193.097 64.2593 208.361 78.0451 225.021C91.8331 241.664 103.972 259.603 114.291 278.587C120.059 289.235 125.241 300.191 129.812 311.403C130.745 313.684 127.035 314.677 126.114 312.422C118.016 292.653 107.997 273.725 96.2012 255.909C84.4627 238.157 71.0274 221.584 56.084 206.422C47.6319 197.851 38.7143 189.75 29.3714 182.157C27.4564 180.6 30.1846 177.904 32.0838 179.449L32.0838 179.449Z" fill="white"/>
<path d="M381.16 316.306H158.384V88.066C158.384 39.5061 197.948 0 246.579 0H292.966C341.596 0 381.16 39.5061 381.16 88.066V316.306Z" fill="#F3F3F3"/>
<path d="M334.774 316.306H158.384V88.066C158.336 69.459 164.236 51.3222 175.227 36.2964C175.633 35.745 176.037 35.2007 176.453 34.6623C181.77 27.7 188.096 21.5684 195.224 16.4698C195.627 16.1773 196.031 15.8898 196.441 15.6024C202.406 11.4809 208.857 8.11166 215.65 5.57138C216.053 5.41872 216.464 5.26575 216.875 5.11904C223.018 2.92993 229.386 1.4304 235.862 0.648139C236.263 0.59338 236.675 0.55053 237.087 0.507679C243.398 -0.166053 249.762 -0.166053 256.072 0.507679C256.483 0.55053 256.896 0.593375 257.302 0.648725C263.776 1.43104 270.142 2.93038 276.284 5.11907C276.695 5.26578 277.105 5.41873 277.51 5.57169C284.218 8.07993 290.594 11.3989 296.495 15.4545C296.905 15.7357 297.316 16.0232 297.72 16.3106C301.715 19.1584 305.468 22.3311 308.94 25.7961C311.725 28.5755 314.319 31.5382 316.707 34.6642C317.122 35.2007 317.526 35.745 317.93 36.2955C328.922 51.3215 334.823 69.4586 334.774 88.066V316.306Z" fill="#166FE5"/>
<path d="M320.431 214.223C325.824 214.223 330.197 209.857 330.197 204.471C330.197 199.086 325.824 194.72 320.431 194.72C315.038 194.72 310.665 199.086 310.665 204.471C310.665 209.857 315.038 214.223 320.431 214.223Z" fill="#166FE5"/>
<path d="M362.91 309.47H355.428L351.867 280.65L362.912 280.651L362.91 309.47Z" fill="#FFB8B8"/>
<path d="M350.083 307.335H364.514V316.408H340.996C340.996 315.216 341.232 314.036 341.688 312.936C342.145 311.835 342.814 310.835 343.658 309.992C344.501 309.15 345.503 308.481 346.606 308.025C347.708 307.57 348.889 307.335 350.083 307.335Z" fill="#2F2E41"/>
<path d="M400.141 309.47H392.659L389.099 280.65L400.143 280.651L400.141 309.47Z" fill="#FFB8B8"/>
<path d="M387.314 307.335H401.745V316.408H378.228C378.228 315.216 378.463 314.036 378.919 312.936C379.376 311.835 380.045 310.835 380.889 309.992C381.733 309.15 382.734 308.481 383.837 308.025C384.939 307.57 386.12 307.335 387.314 307.335Z" fill="#2F2E41"/>
<path d="M325.373 206.403C324.835 205.611 324.477 204.711 324.325 203.766C324.173 202.821 324.23 201.854 324.492 200.934C324.755 200.013 325.216 199.161 325.844 198.438C326.472 197.715 327.251 197.138 328.126 196.748L353.563 126.742L366.079 133.562L337.036 200.462C337.595 201.974 337.579 203.638 336.991 205.139C336.404 206.64 335.285 207.873 333.847 208.606C332.41 209.338 330.753 209.518 329.191 209.112C327.629 208.706 326.271 207.742 325.373 206.403Z" fill="#FFB8B8"/>
<path d="M396.319 219.558C395.488 219.082 394.771 218.429 394.219 217.647C393.667 216.864 393.294 215.97 393.126 215.028C392.957 214.085 392.998 213.118 393.245 212.193C393.491 211.268 393.938 210.408 394.553 209.674L386.673 135.62L400.917 136.27L404.192 209.112C405.358 210.226 406.075 211.729 406.206 213.335C406.336 214.941 405.873 216.539 404.902 217.827C403.932 219.114 402.522 220.002 400.94 220.321C399.358 220.64 397.714 220.368 396.319 219.558Z" fill="#FFB8B8"/>
<path d="M373.596 113.775C381.875 113.775 388.586 107.073 388.586 98.8061C388.586 90.539 381.875 83.8373 373.596 83.8373C365.316 83.8373 358.605 90.539 358.605 98.8061C358.605 107.073 365.316 113.775 373.596 113.775Z" fill="#FFB8B8"/>
<path d="M396.223 202.715H351.029L351.084 202.364C351.165 201.839 359.138 149.684 353.258 132.621C352.667 130.944 352.719 129.109 353.403 127.468C354.087 125.827 355.355 124.497 356.962 123.733H356.962C365.368 119.78 381.503 114.913 395.121 126.725C397.125 128.492 398.69 130.7 399.692 133.174C400.694 135.649 401.106 138.323 400.894 140.984L396.223 202.715Z" fill="#166FE5"/>
<path d="M359.709 157.392L339.363 153.27L348.9 130.702C349.471 128.516 350.886 126.645 352.836 125.5C354.787 124.355 357.112 124.03 359.302 124.594C361.493 125.159 363.369 126.568 364.521 128.512C365.672 130.457 366.004 132.778 365.444 134.966L359.709 157.392Z" fill="#166FE5"/>
<path d="M385.769 165.045L384.545 137.046C383.618 131.782 386.635 126.807 391.276 125.993C395.918 125.183 400.451 128.834 401.382 134.136L405.98 160.298L385.769 165.045Z" fill="#166FE5"/>
<path d="M394.72 199.363C401.992 227.018 402.785 262.179 400.823 300.533L391.058 299.314L373.358 226.179L363.592 300.533L352.606 299.923C349.324 259.681 346.128 225.134 351.385 202.411L394.72 199.363Z" fill="#2F2E41"/>
<path d="M383.473 110.374C380.676 113.349 375.483 111.752 375.118 107.688C375.09 107.373 375.092 107.055 375.125 106.74C375.313 104.94 376.354 103.306 376.105 101.405C376.048 100.932 375.872 100.482 375.592 100.096C373.363 97.1159 368.132 101.429 366.029 98.731C364.739 97.077 366.255 94.4727 365.266 92.624C363.959 90.184 360.091 91.3876 357.664 90.0514C354.965 88.5646 355.127 84.429 356.903 81.9136C359.071 78.8458 362.87 77.2089 366.622 76.9729C370.374 76.737 374.101 77.7498 377.604 79.113C381.584 80.6618 385.531 82.8023 387.98 86.297C390.959 90.5468 391.245 96.2603 389.756 101.23C388.849 104.253 385.757 107.945 383.473 110.374Z" fill="#2F2E41"/>
<path d="M512.678 316.698H62.0645C61.8721 316.698 61.6878 316.621 61.552 316.485C61.4162 316.349 61.3399 316.165 61.3399 315.973C61.3399 315.781 61.4162 315.596 61.552 315.46C61.6878 315.324 61.8721 315.248 62.0645 315.247H512.678C512.871 315.248 513.055 315.324 513.191 315.46C513.327 315.596 513.403 315.781 513.403 315.973C513.403 316.165 513.327 316.349 513.191 316.485C513.055 316.621 512.871 316.698 512.678 316.698Z" fill="#3F3D56"/>
<path d="M286.252 250.18H206.907C205.862 250.186 204.857 249.778 204.114 249.045C203.37 248.312 202.948 247.314 202.94 246.271V69.426C202.948 68.3826 203.37 67.385 204.114 66.652C204.857 65.919 205.862 65.5106 206.907 65.5162H286.252C287.297 65.5106 288.301 65.919 289.045 66.652C289.789 67.385 290.211 68.3826 290.219 69.426V246.271C290.211 247.314 289.789 248.312 289.045 249.045C288.301 249.778 287.297 250.186 286.252 250.18Z" fill="white"/>
<path d="M290.219 122.738H202.94V123.956H290.219V122.738Z" fill="#166FE5"/>
<path d="M290.524 192.282H203.245V193.501H290.524V192.282Z" fill="#166FE5"/>
<path d="M231.626 65.5162H230.405V250.79H231.626V65.5162Z" fill="#166FE5"/>
<path d="M262.143 65.5162H260.922V250.79H262.143V65.5162Z" fill="#166FE5"/>
</g>
<defs>
<clipPath id="clip0_38_5934">
<rect width="531" height="317" fill="white"/>
</clipPath>
</defs>
</svg>
