<svg width="420" height="256" viewBox="0 0 420 256" fill="none" xmlns="http://www.w3.org/2000/svg">
<g clip-path="url(#clip0_38_5884)">
<path d="M21.9131 255.428C21.885 255.302 19.1676 242.74 24.7172 232.307C30.2667 221.874 42.1127 217.273 42.2317 217.227L42.7731 217.021L42.901 217.593C42.9291 217.719 45.6465 230.281 40.0969 240.714C34.5476 251.147 22.7014 255.749 22.5824 255.794L22.0407 256L21.9131 255.428ZM42.0307 218.417C39.6578 219.452 30.2928 223.981 25.6058 232.793C20.9183 241.605 22.3325 252.027 22.7835 254.604C25.1553 253.572 34.5166 249.05 39.2083 240.229C43.8956 231.416 42.4819 220.996 42.0307 218.417V218.417Z" fill="#F1F1F1"/>
<path d="M35.8562 237.055C25.8833 243.137 22.0425 255.219 22.0425 255.219C22.0425 255.219 34.3708 257.439 44.3436 251.356C54.3164 245.274 58.1572 233.192 58.1572 233.192C58.1572 233.192 45.829 230.972 35.8562 237.055Z" fill="#F1F1F1"/>
<path d="M186.882 139.545C187.034 138.749 187.012 137.929 186.818 137.143C186.623 136.356 186.261 135.623 185.757 134.994C185.253 134.365 184.619 133.855 183.899 133.502C183.18 133.148 182.392 132.958 181.593 132.946L176.975 121.172L169.232 122.272L175.985 138.807C176.054 140.17 176.614 141.46 177.558 142.432C178.503 143.404 179.767 143.992 181.11 144.083C182.453 144.174 183.783 143.762 184.846 142.926C185.91 142.089 186.634 140.886 186.882 139.545Z" fill="#9F616A"/>
<path d="M172.618 135.408L170.219 129.608L155.27 100.76L156.082 47.3798L156.238 47.3588C165.804 46.0776 172.276 90.7601 172.547 92.663L181.993 125.412L184.241 132.63L172.618 135.408Z" fill="#166FE5"/>
<path d="M149.648 247.968L156.916 247.968L160.374 219.546L149.646 219.546L149.648 247.968Z" fill="#9F616A"/>
<path d="M147.793 245.562L162.108 245.562H162.108C164.528 245.562 166.848 246.536 168.558 248.271C170.269 250.005 171.23 252.357 171.23 254.81V255.11L147.794 255.111L147.793 245.562Z" fill="#2F2E41"/>
<path d="M82.8159 236.741L88.7798 240.954L107.646 219.641L98.8441 213.423L82.8159 236.741Z" fill="#9F616A"/>
<path d="M82.6518 233.693L94.396 241.99L94.3965 241.99C96.3813 243.392 97.7353 245.536 98.1607 247.951C98.5862 250.365 98.0482 252.852 96.6651 254.864L96.4956 255.111L77.267 241.527L82.6518 233.693Z" fill="#2F2E41"/>
<path d="M145.653 241.288L145.339 187.97L140.765 154.444L132.239 183.927L132.222 183.951L101.323 229.428L89.2997 223.252L89.3656 223.094C90.1003 221.322 107.414 179.71 112.068 179.71C112.474 179.739 112.881 179.667 113.254 179.501C113.627 179.335 113.955 179.079 114.209 178.756C115.575 176.907 114.462 172.984 114.451 172.944C113.119 167.344 116.468 165.437 117.136 165.118L118.93 127.566L119.116 127.579L167.762 131.038L165.721 177.989L161.331 239.504L161.18 239.521L145.653 241.288Z" fill="#2F2E41"/>
<path d="M168.505 139.359L168.295 139.342L115.977 135.067L116.107 117.518L118.667 71.6963L118.682 71.6645L129.11 48.7132L136.502 45.3198L147.287 44.7444L147.314 44.7511L157.156 47.2232L167.395 121.737L168.505 139.359Z" fill="#166FE5"/>
<path d="M148.977 38.8623C155.653 35.163 158.106 26.6782 154.457 19.911C150.808 13.1437 142.438 10.6567 135.763 14.356C129.088 18.0553 126.635 26.5401 130.284 33.3074C133.933 40.0746 142.302 42.5616 148.977 38.8623Z" fill="#9F616A"/>
<path d="M128.517 30.1147V24.6738C128.517 24.6738 124.189 19.5061 128.95 18.2043C128.95 18.2043 130.248 5.18689 141.501 11.2617C141.501 11.2617 157.083 8.65821 155.351 17.7704C155.351 17.7704 159.247 15.3915 157.948 21.4664L155.437 31.2518C155.437 31.2518 156.65 24.7878 152.755 23.92L150.591 22.6182C150.591 22.6182 144.531 28.693 135.442 21.3165C135.442 21.3165 131.547 20.374 131.98 24.2792C132.412 28.1844 128.517 30.1147 128.517 30.1147Z" fill="#2F2E41"/>
<path d="M140.936 126.254C140.945 125.443 140.778 124.641 140.448 123.903C140.117 123.164 139.631 122.509 139.024 121.982C138.416 121.454 137.702 121.069 136.932 120.852C136.162 120.634 135.354 120.591 134.565 120.725L127.937 109.982L120.516 112.473L130.085 127.51C130.394 128.839 131.174 130.006 132.275 130.791C133.376 131.575 134.723 131.923 136.061 131.768C137.399 131.613 138.634 130.967 139.532 129.95C140.431 128.934 140.93 127.619 140.936 126.254Z" fill="#9F616A"/>
<path d="M123.819 122.868L111.828 98.1892L111.839 98.1292C111.887 97.856 116.714 70.6883 120.405 60.7023C124.12 50.653 129.205 48.6354 129.419 48.5544L129.526 48.5139L134.086 52.9474L127.77 95.6827L134.578 116.293L123.819 122.868Z" fill="#166FE5"/>
<path d="M420 0H396.785V23.5352H420V0Z" fill="#F1F1F1"/>
<path d="M238.314 91.5828H215.099V115.118H238.314V91.5828Z" fill="#F1F1F1"/>
<path d="M228.129 104.805H411.67V10.6082H228.129V104.805Z" fill="white"/>
<path d="M413.183 106.34H226.615V9.07324H413.183V106.34ZM229.643 103.27H410.155V12.1431H229.643V103.27Z" fill="#E5E5E5"/>
<path d="M391.374 43.6506H250.16V48.3982H391.374V43.6506Z" fill="#E5E5E5"/>
<path d="M391.374 55.1641H250.16V59.9116H391.374V55.1641Z" fill="#E5E5E5"/>
<path d="M391.374 72.1638H365.13V76.2838H391.374V72.1638Z" fill="#E5E5E5"/>
<path d="M192.789 255.979H0.504683C0.370833 255.979 0.242464 255.925 0.147818 255.829C0.0531714 255.734 0 255.603 0 255.468C0 255.332 0.0531714 255.202 0.147818 255.106C0.242464 255.01 0.370833 254.956 0.504683 254.956H192.789C192.923 254.956 193.051 255.01 193.146 255.106C193.24 255.202 193.293 255.332 193.293 255.468C193.293 255.603 193.24 255.734 193.146 255.829C193.051 255.925 192.923 255.979 192.789 255.979Z" fill="#CBCBCB"/>
</g>
<defs>
<clipPath id="clip0_38_5884">
<rect width="420" height="256" fill="white"/>
</clipPath>
</defs>
</svg>
